# xmcd CD database file generated by OrangeCD 6.5
#
# Track frame offsets:
#	150
#	15871
#	37274
#	56017
#	73739
#	90838
#	106475
#	122714
#	136103
#	155844
#	173273
#	191312
#
# Disc length: 2801 seconds
#
# Revision: 0
# Processed by: cddbd v1.5.2PL0 Copyright (c) Steve Scherf et al.
# Submitted via: OrangeCD 6.5
#
DISCID=920aef0c
DTITLE=Beth Nielsen Chapman - UnCovered
DYEAR=2014
DGENRE=
TTITLE0=Beth Nielsen Chapman with Kim Carnes - Simple Things
TTITLE1=Beth Nielsen Chapman with Vince Gill - Here We Are
TTITLE2=Beth Nielsen Chapman with Duane Eddy and Jessie Colter-Jennings - Sweet L
TTITLE2=ove Shine
TTITLE3=Beth Nielsen Chapman with Amy Grant and Muriel Anderson - Pray
TTITLE4=Beth Nielsen Chapman with Darrell Scott - Maybe That's All It Takes
TTITLE5=Beth Nielsen Chapman with Ruth Trimble and Elidh Patterson - This Kiss
TTITLE6=Beth Nielsen Chapman with Phil Cunningham - Nothin' I Can Do About It N
TTITLE6=ow
TTITLE7=Strong Enough To Bend
TTITLE8=Beth Nielsen Chapman with Bekka Bramlett and George Marinelli - Meet Me H
TTITLE8=alfway
TTITLE9=One In A Million
TTITLE10=Beth Nielsen Chapman with Pam Tillis and Lorrie Morgan - Five Minutes
TTITLE11=Beth Nielsen Chapman with Gretchen Peters and Suzy Bogguss and Matraca Ber
TTITLE11=g - Almost Home
EXTD=
EXTT0=
EXTT1=
EXTT2=
EXTT3=
EXTT4=
EXTT5=
EXTT6=
EXTT7=
EXTT8=
EXTT9=
EXTT10=
EXTT11=
PLAYORDER=
